<svg xmlns:dc="http://purl.org/dc/elements/1.1/" xmlns:cc="http://creativecommons.org/ns#" xmlns:rdf="http://www.w3.org/1999/02/22-rdf-syntax-ns#" xmlns:svg="http://www.w3.org/2000/svg" xmlns="http://www.w3.org/2000/svg" xmlns:sodipodi="http://sodipodi.sourceforge.net/DTD/sodipodi-0.dtd" xmlns:inkscape="http://www.inkscape.org/namespaces/inkscape" version="1.1" x="0px" y="0px" viewBox="0 0 90 90" enable-background="new 0 0 90 90" xml:space="preserve"><path d="M43.8,39.435h2.375v2.098c1.157,0.193,2.24,0.746,3.104,1.527c-0.395,0.438-1.17,1.297-1.561,1.729l-0.486-0.322  c-1.181-0.906-3.083-0.938-4.109,0.223c-0.629,0.684-0.563,1.98,0.36,2.365c1.126,0.5,2.407,0.521,3.531,1.037  c1.631,0.594,2.667,2.313,2.621,4.025c0.01,1.896-1.688,3.381-3.464,3.719v2.158H43.8v-2.086c-0.984-0.135-1.943-0.457-2.818-0.914  c0.354-0.689,0.719-1.377,1.078-2.064c0.688,0.25,1.532,0.641,2.344,0.672c0.98,0.063,2.193-0.115,2.751-1.025  c0.202-0.594,0.177-1.416-0.328-1.871c-1.126-0.791-2.558-0.816-3.819-1.27c-1.473-0.484-2.609-1.875-2.661-3.441  c-0.146-2.059,1.511-3.908,3.454-4.361V39.435z M44.988,10.366c-8.871,0-17.75,3.381-24.506,10.135  C7.456,33.528,6.999,54.435,19.098,68.022L15.956,71.2l3.5,3.494l12.661-12.811c1.142,1.02,2.448,1.914,3.923,2.654  c5.52,2.75,12.375,2.75,17.896,0c5.52-2.76,8.842-7.775,8.842-13.166c0-4.98-1.713-8.428-4.364-11.563  c-2.579-3.047-6.109-5.766-9.677-8.98h-7.5c-3.563,3.215-7.094,5.934-9.672,8.98c-2.65,3.135-4.369,6.582-4.369,11.563  c0,2.338,0.631,4.604,1.786,6.65l-6.401,6.475c-10.192-11.684-9.729-29.371,1.401-40.5c11.042-11.047,28.547-11.584,40.23-1.625  l-9.339,9.453l3.5,3.494l15.979-16.172l-3.495-3.494l-3.161,3.197C61.207,13.2,53.103,10.366,44.988,10.366z"/><path fill-rule="evenodd" clip-rule="evenodd" d="M74.988,27.679l-4.282,2.475c6.73,11.656,4.792,26.344-4.718,35.854  c-9.516,9.516-24.199,11.447-35.85,4.725l-2.479,4.275c13.572,7.838,30.744,5.578,41.822-5.5  C80.56,58.423,82.822,41.251,74.988,27.679z"/><path style="" d="M 37.701,21.419 H 52.27 V 22.731 L 48.666,28.851 H 41.306 L 37.701,22.731 Z"/></svg>