<svg xmlns="http://www.w3.org/2000/svg" viewBox="0 0 32 32" x="0px" y="0px"><title>Keywoard, Empty states</title><g data-name="Layer 2"><path d="M29,13H28V11a1,1,0,0,0-1-1H23a1,1,0,0,0-1,1v2H19.49A8.9613,8.9613,0,0,0,8.718,7.304L3.707,2.293A1,1,0,0,0,2.293,3.707L6.6943,8.1084A8.9931,8.9931,0,0,0,9.3555,24.8535,9.3814,9.3814,0,0,0,11.0049,25a8.9467,8.9467,0,0,0,7.9011-4.68l9.387,9.387A1,1,0,0,0,29.707,28.293L20.4141,19H29a1,1,0,0,0,1-1V14A1,1,0,0,0,29,13ZM9.7051,22.8848a6.9348,6.9348,0,0,1-5.5674-5.4692,7.0628,7.0628,0,0,1,1.458-5.8662A6.99,6.99,0,0,1,8.1833,9.5974L10.624,12.038a3.9894,3.9894,0,1,0,4.338,4.338L17.4055,18.82A7.0032,7.0032,0,0,1,9.7051,22.8848ZM13,16a2,2,0,1,1-2-2A2.0023,2.0023,0,0,1,13,16Zm15,1H18.75a.991.991,0,0,0-.2876.0483L10.4448,9.0307C10.6292,9.0162,10.8132,9,11,9a6.9987,6.9987,0,0,1,6.7813,5.25A1.0008,1.0008,0,0,0,18.75,15H23a1,1,0,0,0,1-1V12h2v2a1,1,0,0,0,1,1h1Z"/></g></svg>