<svg xmlns="http://www.w3.org/2000/svg" xmlns:xlink="http://www.w3.org/1999/xlink" version="1.1" x="0px" y="0px" viewBox="0 0 66 66" style="enable-background:new 0 0 66 66;" xml:space="preserve"><g><path d="M3.9,64.3h40.7c1.6,0,2.9-1.3,2.9-2.9v-25L59.9,24l0.7,0.7c0.5,0.5,0.5,1.2,0,1.7l-6.1,6.1c-0.4,0.4-0.4,1,0,1.4   c0.4,0.4,1,0.4,1.4,0l6.1-6.1c1.2-1.2,1.2-3.2,0-4.5l-0.7-0.7l2.8-2.8c0.6-0.6,0.9-1.4,0.9-2.2c0-0.8-0.3-1.6-0.9-2.2L62,13.2   c-1.2-1.2-3.3-1.2-4.5,0l-9.9,9.9V4.6c0-1.6-1.3-2.9-2.9-2.9H3.9C2.3,1.7,1,3,1,4.6v56.7C1,63,2.3,64.3,3.9,64.3z M37.6,43.5   l-3.8-3.8c6.3-6.3,11.4-11.4,20.9-20.9l3.8,3.8C51.3,29.7,44.8,36.3,37.6,43.5z M35.8,44.5l-5.1,1.9l1.9-5.1L35.8,44.5z M58.9,14.6   c0.5-0.5,1.3-0.5,1.7,0l2.1,2.1c0.2,0.2,0.4,0.5,0.4,0.9c0,0.3-0.1,0.6-0.4,0.9l-2.8,2.8L56,17.4L58.9,14.6z M3,4.6   c0-0.5,0.4-1,1-1h40.7c0.5,0,1,0.4,1,1v20.4L31.7,39c0,0,0,0,0,0c-0.1,0.1-0.1,0.2-0.2,0.3c0,0,0,0,0,0c0,0,0,0,0,0l-3.3,8.5   c-0.3,0.8,0.5,1.6,1.3,1.3l8.5-3.3c0.2-0.1,0.3-0.2,0.4-0.3l7.2-7.2v23.1c0,0.5-0.4,1-1,1H3.9c-0.5,0-1-0.4-1-1V4.6z"/><path d="M8.9,34h23.4c0.5,0,1-0.4,1-1s-0.4-1-1-1H8.9c-0.5,0-1,0.4-1,1S8.4,34,8.9,34z"/><path d="M8.9,18.9h30.7c0.5,0,1-0.4,1-1c0-0.5-0.4-1-1-1H8.9c-0.5,0-1,0.4-1,1C7.9,18.4,8.4,18.9,8.9,18.9z"/><path d="M8.9,41.5h17.4c0.5,0,1-0.4,1-1s-0.4-1-1-1H8.9c-0.5,0-1,0.4-1,1S8.4,41.5,8.9,41.5z"/><path d="M8.9,26.4h30.7c0.5,0,1-0.4,1-1s-0.4-1-1-1H8.9c-0.5,0-1,0.4-1,1S8.4,26.4,8.9,26.4z"/><path d="M8.9,49.1h17.4c0.5,0,1-0.4,1-1s-0.4-1-1-1H8.9c-0.5,0-1,0.4-1,1S8.4,49.1,8.9,49.1z"/><path d="M8.9,11.3h15.4c0.5,0,1-0.4,1-1c0-0.5-0.4-1-1-1H8.9c-0.5,0-1,0.4-1,1C7.9,10.9,8.4,11.3,8.9,11.3z"/></g></svg>