<svg xmlns:xlink="http://www.w3.org/1999/xlink" xmlns="http://www.w3.org/2000/svg" version="1.1" xlink="http://www.w3.org/1999/xlink" xmlns:svgjs="http://svgjs.com/svgjs" width="94.06953430175781" height="96.94754028320312" viewBox="2.9714033603668213 1.518327236175537 94.06953430175781 96.94754028320312"><g fill="#0D0D0D"><path d="M38.078 11a44.744 44.744 0 0 0-24.066 16.73 44.742 44.742 0 0 0-8.543 28.039 20.568 20.568 0 0 1 8.781-2.41 35.908 35.908 0 0 1 25.09-33.531 12.276 12.276 0 0 0 14.648 5.598 12.285 12.285 0 0 0 8.207-13.363A12.282 12.282 0 0 0 38.078 11zm16.391 2.8a4.453 4.453 0 0 1-2.742 4.11 4.451 4.451 0 0 1-5.824-5.8 4.455 4.455 0 0 1 7.257-1.465 4.452 4.452 0 0 1 1.31 3.155zm12.91 71.419a35.882 35.882 0 0 1-41.57-5 12.256 12.256 0 0 0-2.516-15.45 12.254 12.254 0 0 0-15.645-.382A12.256 12.256 0 0 0 18.81 85.739a44.72 44.72 0 0 0 55.09 5.84 20.803 20.803 0 0 1-6.52-6.36zm-52.129-6.77a4.453 4.453 0 0 1-3.148-7.598 4.453 4.453 0 0 1 6.296 6.297 4.466 4.466 0 0 1-3.148 1.301zm73.352-46.777a44.317 44.317 0 0 0-17.91-17.25 20.57 20.57 0 0 1-2.27 8.828 35.902 35.902 0 0 1 16.49 38.481h-.161a12.307 12.307 0 0 0-12.109 9.977c-1.117 5.805 2.043 11.582 7.531 13.77s11.754.168 14.934-4.812a12.308 12.308 0 0 0-1.926-15.574 44.014 44.014 0 0 0-4.578-33.418zM84.75 78.45a4.453 4.453 0 0 1-3.148-7.598 4.453 4.453 0 0 1 6.297 6.297 4.466 4.466 0 0 1-3.149 1.301z" fill="#00008B"></path></g></svg>