<svg xmlns:xlink="http://www.w3.org/1999/xlink" xmlns="http://www.w3.org/2000/svg" version="1.1" xlink="http://www.w3.org/1999/xlink" xmlns:svgjs="http://svgjs.com/svgjs" width="230" height="36" viewBox="4.050000190734863 -50.150001525878906 328.8700256347656 50.790000915527344"><g fill="#2E2E2E"><path d="M38.39 -21.65C36.77 -23.61 34.52 -24.91 31.62 -25.56C34.09 -26.27 36.01 -27.6 37.37 -29.54C38.73 -31.48 39.41 -33.78 39.41 -36.43C39.41 -39.58 38.69 -42.15 37.25 -44.16C35.81 -46.17 33.6 -47.66 30.6 -48.64C27.6 -49.63 23.74 -50.12 19.04 -50.12C16.54 -50.12 13.98 -49.98 11.38 -49.7C8.77 -49.42 6.32 -49.04 4.05 -48.54L4.05 -0.4C6.1 -0.11 8.34 0.12 10.76 0.3C13.18 0.48 15.39 0.57 17.4 0.57C25.58 0.57 31.53 -0.63 35.25 -3.03C38.96 -5.43 40.82 -9.02 40.82 -13.82C40.82 -17.07 40.01 -19.68 38.39 -21.65ZM14.22 -41.69C16.32 -42.04 18.43 -42.22 20.58 -42.22C22.78 -42.22 24.55 -42 25.86 -41.57C27.18 -41.13 28.13 -40.45 28.72 -39.51C29.31 -38.57 29.61 -37.33 29.61 -35.76C29.61 -34.27 29.32 -33.06 28.74 -32.13C28.16 -31.21 27.22 -30.52 25.93 -30.06C24.63 -29.6 22.89 -29.37 20.71 -29.37L14.22 -29.37ZM26.61 -8.06C25.02 -7.57 22.87 -7.33 20.17 -7.33C18.37 -7.33 16.38 -7.43 14.22 -7.63L14.22 -21.21L21.68 -21.21C24.94 -21.21 27.32 -20.66 28.82 -19.55C30.33 -18.45 31.08 -16.72 31.08 -14.35C31.08 -12.7 30.73 -11.36 30.04 -10.34C29.35 -9.31 28.21 -8.55 26.61 -8.06Z M46.4 0L77.92 0L77.92 -9.03L56.81 -9.03L56.81 -49.51L46.4 -49.51Z M89.46 -2.06C92.7 -0.26 96.52 0.64 100.94 0.64C105.33 0.64 109.14 -0.27 112.36 -2.07C115.58 -3.88 118.09 -6.67 119.87 -10.45C121.66 -14.24 122.55 -19 122.55 -24.76C122.55 -30.51 121.66 -35.28 119.89 -39.06C118.12 -42.84 115.62 -45.63 112.4 -47.44C109.17 -49.25 105.35 -50.15 100.94 -50.15C96.52 -50.15 92.7 -49.25 89.48 -47.46C86.25 -45.66 83.75 -42.87 81.97 -39.09C80.18 -35.31 79.29 -30.53 79.29 -24.76C79.29 -18.98 80.18 -14.2 81.95 -10.42C83.72 -6.64 86.23 -3.85 89.46 -2.06ZM109.05 -11.83C107.19 -9.23 104.48 -7.93 100.94 -7.93C97.35 -7.93 94.62 -9.25 92.77 -11.89C90.92 -14.54 90 -18.9 90 -24.99C90 -30.86 90.93 -35.09 92.79 -37.69C94.65 -40.29 97.37 -41.59 100.94 -41.59C104.51 -41.59 107.22 -40.26 109.07 -37.62C110.92 -34.98 111.84 -30.61 111.84 -24.52C111.84 -18.66 110.91 -14.43 109.05 -11.83Z M165.81 -24.09L156.14 -24.09L156.14 -8.23C155.2 -8.16 154.24 -8.13 153.26 -8.13C149.96 -8.13 147.23 -8.68 145.06 -9.79C142.9 -10.89 141.26 -12.65 140.15 -15.07C139.03 -17.49 138.47 -20.65 138.47 -24.56C138.47 -28.66 139.07 -31.94 140.25 -34.41C141.43 -36.87 143.22 -38.65 145.62 -39.75C148.01 -40.84 151.11 -41.4 154.9 -41.42C157.89 -41.42 161.1 -40.99 164.54 -40.15L164.54 -48.88C161.24 -49.73 157.68 -50.15 153.86 -50.15C145.34 -50.15 138.84 -48.05 134.34 -43.84C129.85 -39.64 127.6 -33.26 127.6 -24.69C127.6 -16.08 129.81 -9.72 134.24 -5.6C138.67 -1.49 145.33 0.57 154.23 0.57C157.73 0.57 161.59 0.23 165.81 -0.43Z M178.42 0.1C180.7 0.46 182.9 0.64 185.04 0.64C189.01 0.64 192.43 0.02 195.28 -1.2C198.14 -2.43 200.32 -4.18 201.82 -6.46C203.33 -8.73 204.08 -11.44 204.08 -14.59C204.08 -18.33 203.01 -21.36 200.87 -23.67C198.73 -25.98 195.52 -27.75 191.23 -28.97L187.69 -30.01C186.06 -30.5 184.8 -31 183.91 -31.52C183.02 -32.03 182.38 -32.62 182 -33.31C181.62 -33.99 181.43 -34.82 181.43 -35.8C181.43 -37.6 182.21 -39.01 183.76 -40.01C185.31 -41.02 187.85 -41.52 191.4 -41.52C193.16 -41.52 194.92 -41.4 196.67 -41.15C198.42 -40.91 200.04 -40.56 201.54 -40.11L201.54 -48.78C200.02 -49.2 198.32 -49.54 196.42 -49.78C194.52 -50.03 192.56 -50.15 190.53 -50.15C186.25 -50.15 182.65 -49.55 179.74 -48.34C176.83 -47.14 174.65 -45.42 173.18 -43.17C171.72 -40.93 170.99 -38.24 170.99 -35.1C170.99 -27.98 175.02 -23.25 183.07 -20.91L186.62 -19.84C188.42 -19.3 189.83 -18.76 190.85 -18.22C191.86 -17.67 192.58 -17.05 193.01 -16.34C193.43 -15.64 193.64 -14.77 193.64 -13.72C193.64 -9.9 190.72 -8 184.88 -8C182.87 -8 180.76 -8.18 178.55 -8.55C176.35 -8.92 174.24 -9.41 172.23 -10.04L172.23 -1.41C174.08 -0.76 176.15 -0.26 178.42 0.1Z M209.57 -48.61L209.57 0L219.97 0L219.97 -14.49C221.71 -14.37 223.2 -14.32 224.42 -14.32C231.16 -14.32 236.26 -15.84 239.73 -18.87C243.2 -21.9 244.93 -26.35 244.93 -32.22C244.93 -38.35 243.18 -42.87 239.68 -45.77C236.18 -48.67 230.88 -50.12 223.79 -50.12C219.04 -50.12 214.3 -49.62 209.57 -48.61ZM232.33 -24.81C230.7 -23.3 228.1 -22.55 224.56 -22.55C222.82 -22.55 221.29 -22.64 219.97 -22.82L219.97 -41.52C221.4 -41.79 222.98 -41.92 224.72 -41.92C228.16 -41.92 230.7 -41.14 232.33 -39.58C233.97 -38.02 234.79 -35.53 234.79 -32.12C234.79 -28.75 233.97 -26.31 232.33 -24.81Z M259.79 -2.06C263.02 -0.26 266.84 0.64 271.26 0.64C275.65 0.64 279.46 -0.27 282.69 -2.07C285.91 -3.88 288.41 -6.67 290.2 -10.45C291.98 -14.24 292.87 -19 292.87 -24.76C292.87 -30.51 291.99 -35.28 290.21 -39.06C288.44 -42.84 285.94 -45.63 282.72 -47.44C279.5 -49.25 275.68 -50.15 271.26 -50.15C266.84 -50.15 263.02 -49.25 259.8 -47.46C256.58 -45.66 254.08 -42.87 252.29 -39.09C250.51 -35.31 249.61 -30.53 249.61 -24.76C249.61 -18.98 250.5 -14.2 252.27 -10.42C254.05 -6.64 256.55 -3.85 259.79 -2.06ZM279.37 -11.83C277.51 -9.23 274.81 -7.93 271.26 -7.93C267.67 -7.93 264.95 -9.25 263.1 -11.89C261.25 -14.54 260.32 -18.9 260.32 -24.99C260.32 -30.86 261.25 -35.09 263.11 -37.69C264.98 -40.29 267.69 -41.59 271.26 -41.59C274.83 -41.59 277.54 -40.26 279.39 -37.62C281.24 -34.98 282.17 -30.61 282.17 -24.52C282.17 -18.66 281.24 -14.43 279.37 -11.83Z M307.86 0L318.3 0L318.3 -40.48L332.92 -40.48L332.92 -49.51L293.24 -49.51L293.24 -40.48L307.86 -40.48Z" fill="#2E2E2E"></path></g></svg>